<?xml version="1.0" standalone="no"?>
<!DOCTYPE svg PUBLIC "-//W3C//DTD SVG 20010904//EN"
 "http://www.w3.org/TR/2001/REC-SVG-20010904/DTD/svg10.dtd">
<svg version="1.0" xmlns="http://www.w3.org/2000/svg"
 width="512.000000pt" height="512.000000pt" viewBox="0 0 512.000000 512.000000"
 preserveAspectRatio="xMidYMid meet">

<g transform="translate(0.000000,512.000000) scale(0.100000,-0.100000)"
fill="#000000" stroke="none">
<path d="M2690 4954 c-375 -44 -604 -108 -889 -250 -710 -353 -1186 -1012
-1308 -1814 -24 -158 -24 -500 0 -660 116 -764 562 -1409 1226 -1774 247 -136
519 -226 821 -273 159 -24 510 -24 668 1 510 79 952 294 1320 641 99 93 126
140 119 203 -5 50 -29 87 -77 120 -41 28 -87 28 -182 2 -209 -56 -519 -72
-723 -36 -426 76 -799 286 -1061 598 -452 539 -548 1268 -249 1896 211 442
584 765 1063 922 124 40 150 52 178 83 57 62 55 154 -5 214 -39 40 -158 74
-377 108 -94 15 -450 28 -524 19z m179 -319 c-3 -2 -43 -30 -89 -60 -771 -516
-1106 -1501 -809 -2380 270 -797 970 -1344 1814 -1415 71 -6 131 -13 133 -15
7 -7 -247 -126 -341 -160 -1000 -358 -2100 86 -2571 1037 -463 937 -154 2076
719 2652 276 182 607 301 931 335 90 10 220 13 213 6z"/>
</g>
</svg>
