<?xml version="1.0" standalone="no"?>
<!DOCTYPE svg PUBLIC "-//W3C//DTD SVG 20010904//EN"
 "http://www.w3.org/TR/2001/REC-SVG-20010904/DTD/svg10.dtd">
<svg version="1.0" xmlns="http://www.w3.org/2000/svg"
 width="512.000000pt" height="512.000000pt" viewBox="0 0 512.000000 512.000000"
 preserveAspectRatio="xMidYMid meet">

<g transform="translate(0.000000,512.000000) scale(0.100000,-0.100000)"
fill="#000000" stroke="none">
<path d="M2410 4665 l0 -455 150 0 150 0 0 455 0 455 -150 0 -150 0 0 -455z"/>
<path d="M757 4362 l-107 -107 318 -318 317 -317 108 108 107 107 -318 318
-317 317 -108 -108z"/>
<path d="M3937 4152 l-317 -317 108 -108 107 -107 318 318 317 317 -108 108
-107 107 -318 -318z"/>
<path d="M2420 3904 c-322 -40 -591 -171 -815 -398 -199 -201 -313 -415 -372
-696 -24 -118 -24 -382 0 -500 59 -281 174 -496 372 -696 201 -203 421 -322
705 -381 117 -24 380 -24 502 0 270 54 494 174 694 372 202 199 322 421 381
705 24 118 24 382 0 500 -39 185 -110 356 -212 510 -63 95 -258 291 -351 352
-161 107 -335 180 -506 213 -81 16 -328 28 -398 19z m380 -322 c198 -52 365
-146 501 -281 135 -135 226 -297 282 -501 29 -109 29 -371 0 -480 -56 -204
-147 -366 -282 -501 -135 -135 -297 -226 -501 -282 -109 -29 -371 -29 -480 0
-204 56 -366 147 -501 282 -386 387 -411 1000 -57 1421 153 182 404 323 638
359 98 15 311 6 400 -17z"/>
<path d="M0 2560 l0 -150 455 0 455 0 0 150 0 150 -455 0 -455 0 0 -150z"/>
<path d="M4210 2560 l0 -150 455 0 455 0 0 150 0 150 -455 0 -455 0 0 -150z"/>
<path d="M967 1182 l-317 -317 108 -108 107 -107 318 318 317 317 -108 108
-107 107 -318 -318z"/>
<path d="M3727 1392 l-107 -107 318 -318 317 -317 108 108 107 107 -318 318
-317 317 -108 -108z"/>
<path d="M2410 455 l0 -455 150 0 150 0 0 455 0 455 -150 0 -150 0 0 -455z"/>
</g>
</svg>
